<svg width="21" height="25" viewBox="0 0 21 25" fill="none" xmlns="http://www.w3.org/2000/svg">
<path d="M11.3832 0.345561C11.1529 0.115187 10.8839 0 10.5384 0C10.2311 0 9.92387 0.115187 9.69352 0.345561L3.43385 6.9894L3.39554 7.0277C-0.483043 11.2135 -0.483043 17.7036 3.39554 21.8895C5.23879 23.8865 7.81169 25 10.5 25C13.1881 25 15.7611 23.8479 17.6045 21.8895C21.483 17.7037 21.483 11.2136 17.6045 7.0277L11.3832 0.345561ZM7.08222 19.3548C6.5446 19.7004 5.81494 19.5083 5.50765 18.9707C4.58592 17.473 4.04829 15.7833 3.97169 14.0169C3.93338 13.3641 4.43243 12.8265 5.08522 12.8265C5.73803 12.7882 6.27563 13.2872 6.27563 13.94C6.31394 15.2842 6.73638 16.6281 7.42777 17.7803C7.77333 18.3181 7.61984 19.0093 7.08221 19.3548L7.08222 19.3548Z" fill="#74CDFF"/>
</svg>
