<svg width="24" height="24" xmlns="http://www.w3.org/2000/svg" viewBox="0 0 24 24"><title>Setting   3</title><g fill="none" class="nc-icon-wrapper"><path fill-rule="evenodd" clip-rule="evenodd" d="M7.412 19.304l.176.096c1.61.876 2.414 1.314 3.267 1.486a5.805 5.805 0 0 0 2.29 0c.853-.172 1.658-.61 3.267-1.486l.176-.096c1.499-.816 2.248-1.225 2.813-1.784a5.41 5.41 0 0 0 1.372-2.272C21 14.498 21 13.665 21 12c0-1.665 0-2.498-.227-3.248A5.41 5.41 0 0 0 19.4 6.48c-.564-.56-1.314-.968-2.813-1.784l-.176-.096c-1.61-.876-2.414-1.314-3.267-1.486a5.806 5.806 0 0 0-2.29 0c-.853.172-1.658.61-3.267 1.486l-.176.096C5.913 5.512 5.163 5.92 4.6 6.48a5.41 5.41 0 0 0-1.372 2.272C3 9.502 3 10.335 3 12c0 1.665 0 2.498.227 3.248A5.41 5.41 0 0 0 4.6 17.52c.564.56 1.314.968 2.813 1.784zM12 8.624c-1.926 0-3.488 1.511-3.488 3.376s1.562 3.376 3.488 3.376 3.488-1.511 3.488-3.376S13.926 8.624 12 8.624zM9.863 12c0-1.143.957-2.07 2.137-2.07 1.18 0 2.137.927 2.137 2.07 0 1.143-.957 2.07-2.137 2.07-1.18 0-2.137-.927-2.137-2.07z" fill="#363853"></path></g></svg>