<svg width="25" height="25" viewBox="0 0 25 25" fill="none" xmlns="http://www.w3.org/2000/svg">
<path d="M9.88391 14.1027V3.77902C9.88391 1.69536 8.18855 0 6.10488 0C4.02102 0 2.32566 1.69536 2.32566 3.77902V14.1027C0.861383 15.2576 0 17.0158 0 18.8953C0 22.2617 2.73834 25 6.10468 25C9.47103 25 12.2094 22.2617 12.2094 18.8953C12.2096 17.0158 11.3482 15.2574 9.88391 14.1027ZM6.10488 23.2557C3.70039 23.2557 1.74439 21.2997 1.74439 18.8952C1.74439 17.4389 2.46953 16.0843 3.68324 15.2706C3.92521 15.1088 4.06985 14.8369 4.06985 14.5462V3.77907C4.06985 2.65721 4.98281 1.74425 6.10467 1.74425C7.22674 1.74425 8.1397 2.65721 8.1397 3.77907V14.5462C8.1397 14.8369 8.28453 15.1088 8.52631 15.2708C9.74022 16.0843 10.4654 17.439 10.4654 18.8952C10.4654 21.2997 8.50936 23.2557 6.10486 23.2557H6.10488ZM9.30244 19.0147C9.30244 21.1116 7.27444 22.7431 5.07626 22.0511C4.12806 21.7527 3.35892 20.9789 3.0644 20.0293C2.4804 18.147 3.59369 16.4216 5.23279 15.9531V4.11944C5.23279 3.63803 5.62348 3.24734 6.10488 3.24734C6.58629 3.24734 6.97698 3.63803 6.97698 4.11944V15.9531C8.31493 16.3354 9.30244 17.5553 9.30244 19.0146V19.0147ZM18.3144 6.44356C16.2574 6.44356 14.5837 8.11729 14.5837 10.1743C14.5835 12.2313 16.2574 13.9052 18.3144 13.9052C20.3715 13.9052 22.0452 12.2313 22.0452 10.1743C22.0452 8.11729 20.3715 6.44356 18.3144 6.44356ZM18.3144 12.161C17.2192 12.161 16.3279 11.2696 16.3279 10.1745C16.3277 9.07914 17.2191 8.18775 18.3144 8.18775C19.4097 8.18775 20.301 9.07913 20.301 10.1743C20.301 11.2696 19.4096 12.161 18.3144 12.161ZM13.5452 6.63841C13.2045 6.29775 13.2045 5.74588 13.5452 5.40521C13.8858 5.06455 14.4377 5.06455 14.7784 5.40521C15.119 5.74587 15.1564 6.33572 14.8163 6.67638C14.6363 6.85586 14.4081 6.95125 14.1827 6.95125C13.9812 6.95125 13.7813 6.87455 13.6207 6.71395L13.5452 6.63841ZM17.4424 4.40833V4.36064C17.4424 3.87923 17.833 3.48854 18.3144 3.48854C18.7959 3.48854 19.1865 3.87903 19.1865 4.36064C19.1865 4.84204 18.7959 5.25651 18.3144 5.25651C17.8328 5.25651 17.4424 4.88976 17.4424 4.40833V4.40833ZM21.8124 6.67658C21.4723 6.33592 21.4343 5.82143 21.7748 5.48096L21.8503 5.40543C22.191 5.06477 22.7428 5.06477 23.0835 5.40543C23.4242 5.74609 23.4242 6.29796 23.0835 6.63863C22.904 6.81869 22.6549 6.91408 22.4096 6.91408C22.19 6.91388 21.9738 6.83718 21.8124 6.67659L21.8124 6.67658ZM24.9766 10.1745C24.9766 10.6559 24.6099 11.0466 24.1283 11.0466H24.0806C23.5992 11.0466 23.2085 10.6559 23.2085 10.1745C23.2085 9.69308 23.5992 9.30239 24.0806 9.30239C24.5622 9.30239 24.9766 9.69308 24.9766 10.1745H24.9766ZM14.8538 13.635C15.1945 13.9757 15.1945 14.5276 14.8538 14.8682C14.6743 15.0483 14.4252 15.1437 14.1799 15.1437C13.9601 15.1437 13.7439 15.067 13.5827 14.9064C13.2426 14.5657 13.2047 14.0512 13.5451 13.7108L13.6207 13.6352C13.9613 13.2944 14.5132 13.2944 14.8539 13.635L14.8538 13.635ZM19.1864 15.9408C19.1864 16.4223 18.7958 16.8367 18.3144 16.8367C17.8327 16.8369 17.4423 16.47 17.4423 15.9885V15.9408C17.4423 15.4594 17.8329 15.0688 18.3144 15.0688C18.7958 15.0688 19.1864 15.4594 19.1864 15.9408V15.9408ZM23.0081 13.635C23.3488 13.9757 23.3862 14.5655 23.0461 14.9062C22.866 15.0857 22.6379 15.1811 22.4124 15.1811C22.211 15.1811 22.0111 15.1044 21.8505 14.9438L21.7749 14.8682C21.4343 14.5276 21.4343 13.9757 21.7749 13.635C22.1156 13.2944 22.6675 13.2944 23.0081 13.635L23.0081 13.635ZM13.3961 10.1745C13.3961 10.6559 13.0294 11.0466 12.5478 11.0466H12.5003C12.0189 11.0466 11.6282 10.6559 11.6282 10.1745C11.6282 9.69308 12.0189 9.30239 12.5003 9.30239C12.9817 9.30239 13.3962 9.69308 13.3962 10.1745H13.3961Z" fill="#74CDFF"/>
</svg>
