<svg width="24" height="24" xmlns="http://www.w3.org/2000/svg" viewBox="0 0 24 24"><title>Unlock</title><g fill="none" class="nc-icon-wrapper"><path fill-rule="evenodd" clip-rule="evenodd" d="M12.748 4.492c-.488-.119-1-.116-1.487.007l-.063.016c-1.334.338-2.294 1.45-2.423 2.764l.034-.007a15.836 15.836 0 0 1 6.383 0l.25.051c2.075.428 3.723 1.958 4.256 3.954a8.888 8.888 0 0 1-.342 5.617l-.084.21c-.772 1.92-2.53 3.302-4.622 3.633l-.681.108a12.596 12.596 0 0 1-3.938 0l-.68-.108c-2.094-.331-3.851-1.712-4.623-3.633l-.084-.21a8.888 8.888 0 0 1-.342-5.617 5.48 5.48 0 0 1 3.013-3.545v-.149c0-2.083 1.447-3.903 3.52-4.427l.061-.016a4.576 4.576 0 0 1 2.203-.01c.783.19 1.498.583 2.069 1.138l.232.226a.689.689 0 0 1 0 .994.737.737 0 0 1-1.021 0l-.233-.226a3.032 3.032 0 0 0-1.398-.77zm-.17 8.929a.57.57 0 0 0-.578-.562.57.57 0 0 0-.578.562v1.873c0 .31.259.562.578.562a.57.57 0 0 0 .578-.562V13.42z" fill="#363853"></path></g></svg>