<svg width="19" height="16" viewBox="0 0 19 16" fill="none" xmlns="http://www.w3.org/2000/svg">
<path d="M6.91672 10.7088C6.33541 11.2899 6.00867 12.0783 6.00867 12.9004C6.00867 13.7224 6.33524 14.5108 6.91636 15.0921C7.49768 15.6734 8.28608 16 9.10811 16C9.93014 16 10.7185 15.6734 11.2997 15.0921C11.881 14.5108 12.2076 13.7224 12.2074 12.9004C12.2074 12.0783 11.8808 11.2899 11.2995 10.7088C10.721 10.1226 9.93171 9.79268 9.10811 9.79268C8.28451 9.79268 7.49521 10.1226 6.91672 10.7088ZM10.0563 11.952C10.3524 12.2471 10.4943 12.6632 10.4403 13.0775C10.3864 13.4921 10.1425 13.8579 9.78072 14.067C9.41893 14.2764 8.98022 14.3055 8.59409 14.1457C8.20778 13.9858 7.91801 13.6553 7.80991 13.2516C7.70164 12.8478 7.78766 12.4166 8.04223 12.0853C8.29697 11.7539 8.69136 11.5597 9.10937 11.5603C9.46556 11.5585 9.80753 11.6997 10.0588 11.952L10.0563 11.952Z" fill="black"/>
<path d="M14.0902 8.7977C14.325 8.7991 14.5507 8.7066 14.7168 8.5405C14.8828 8.37459 14.9757 8.14911 14.9745 7.91434C14.9734 7.67957 14.8785 7.45497 14.7106 7.29081C13.2232 5.80705 11.208 4.9738 9.10737 4.9738C7.00636 4.9738 4.99124 5.80705 3.50366 7.29081C3.2815 7.51279 3.19478 7.83656 3.27607 8.13985C3.35736 8.44329 3.59441 8.68035 3.89766 8.76162C4.20111 8.84291 4.52486 8.75619 4.74688 8.53404C5.90426 7.37948 7.47249 6.73106 9.10727 6.73106C10.742 6.73106 12.3101 7.37948 13.4675 8.53404C13.6315 8.7017 13.8559 8.79666 14.0903 8.79771L14.0902 8.7977Z" fill="black"/>
<path d="M17.3451 5.17596C17.58 5.17789 17.8062 5.08574 17.9728 4.92C18.1394 4.75409 18.2328 4.52843 18.2318 4.29347C18.2309 4.05835 18.1359 3.83339 17.9679 3.66887C16.4135 2.11415 14.477 0.996011 12.3534 0.426804C10.2298 -0.142268 7.99376 -0.142268 5.87019 0.426804C3.74658 0.996011 1.81013 2.11415 0.255717 3.66887C0.0335641 3.89331 -0.0519361 4.21902 0.0312853 4.52351C0.114507 4.82801 0.353828 5.06505 0.659202 5.14511C0.964576 5.22535 1.28941 5.13652 1.51155 4.91209C2.84763 3.57566 4.51219 2.6145 6.33799 2.12517C8.16339 1.63602 10.0857 1.63602 11.9112 2.12517C13.7368 2.6145 15.4013 3.57566 16.7376 4.91209C16.898 5.07626 17.1163 5.17086 17.3456 5.17594L17.3451 5.17596Z" fill="black"/>
</svg>
